<svg width="742" height="212" fill="none" xmlns="http://www.w3.org/2000/svg">
<path fill-rule="evenodd" clip-rule="evenodd" d="M0 33.92L15.4583 25.44C30.9167 16.96 61.8333 0 92.75 0C123.667 0 154.583 16.96 185.5 33.92C216.417 50.88 247.333 67.84 278.25 67.84C309.167 67.84 340.083 50.88 371 50.88C401.917 50.88 432.833 67.84 463.75 72.08C494.667 76.32 525.583 67.84 556.5 55.12C587.417 42.4 618.333 25.44 649.25 33.92C680.167 42.4 711.083 76.32 726.542 93.28L742 110.24V212H726.542C711.083 212 680.167 212 649.25 212C618.333 212 587.417 212 556.5 212C525.583 212 494.667 212 463.75 212C432.833 212 401.917 212 371 212C340.083 212 309.167 212 278.25 212C247.333 212 216.417 212 185.5 212C154.583 212 123.667 212 92.75 212C61.8333 212 30.9167 212 15.4583 212H0V33.92Z" fill="#CF2958"/>
</svg>
