 <svg
width="1260"
height="85"
fill="none"
xmlns="http://www.w3.org/2000/svg"
>
<path
fillRule="evenodd"
clipRule="evenodd"
d="M0 32.6152L17.85 28.9913C34.65 25.3674 70.35 18.1195 105 12.6837C139.65 7.24782 175.35 3.62391 210 10.8717C244.65 18.1195 280.35 36.2391 315 41.675C349.65 47.1108 385.35 39.863 420 38.0511C454.65 36.2391 490.35 39.863 525 38.0511C559.65 36.2391 595.35 28.9913 630 30.8032C664.65 32.6152 700.35 43.4869 735 57.9826C769.65 72.4782 805.35 90.5977 840 83.3499C874.65 76.1021 910.35 43.4869 945 30.8032C979.65 18.1195 1015.35 25.3674 1050 27.1793C1084.65 28.9913 1120.35 25.3674 1155 25.3674C1189.65 25.3674 1225.35 28.9913 1242.15 30.8032L1260 32.6152V0H1242.15C1225.35 0 1189.65 0 1155 0C1120.35 0 1084.65 0 1050 0C1015.35 0 979.65 0 945 0C910.35 0 874.65 0 840 0C805.35 0 769.65 0 735 0C700.35 0 664.65 0 630 0C595.35 0 559.65 0 525 0C490.35 0 454.65 0 420 0C385.35 0 349.65 0 315 0C280.35 0 244.65 0 210 0C175.35 0 139.65 0 105 0C70.35 0 34.65 0 17.85 0H0V32.6152Z"
fill="url(#paint0_linear)"
/>
<defs>
<linearGradient
id="paint0_linear"
x1="0"
y1="42.5"
x2="1260"
y2="42.5"
gradientUnits="userSpaceOnUse"
>
<stop stop-color="#722ACE" />
<stop offset="1" stop-color="#44197C" />
</linearGradient>
</defs>
</svg>