<svg width="1261" height="531" viewBox="0 0 1261 531" fill="none" xmlns="http://www.w3.org/2000/svg">
<g opacity="0.5">
<ellipse cx="550.033" cy="339.84" rx="14.2601" ry="14.16" fill="#44197C"/>
<ellipse cx="467.26" cy="111.16" rx="14.2601" ry="14.16" fill="#44197C"/>
<ellipse cx="425.26" cy="106.16" rx="14.2601" ry="14.16" fill="#44197C"/>
<ellipse cx="536.26" cy="42.16" rx="14.2601" ry="14.16" fill="#44197C"/>
<ellipse cx="1246.74" cy="186.103" rx="14.2601" ry="14.16" fill="#44197C"/>
<ellipse cx="795.51" cy="14.16" rx="14.2601" ry="14.16" fill="#44197C"/>
<ellipse cx="196.586" cy="324.669" rx="14.2601" ry="14.16" fill="#44197C"/>
<ellipse cx="264.83" cy="400.526" rx="14.2601" ry="14.16" fill="#44197C"/>
<ellipse cx="762.915" cy="481.44" rx="14.2601" ry="14.16" fill="#44197C"/>
<ellipse cx="14.2601" cy="310.509" rx="14.2601" ry="14.16" fill="#44197C"/>
<ellipse cx="196.586" cy="28.3199" rx="14.2601" ry="14.16" fill="#44197C"/>
<ellipse cx="1225.35" cy="516.84" rx="14.2601" ry="14.16" fill="#44197C"/>
<ellipse cx="1239.61" cy="475.371" rx="14.2601" ry="14.16" fill="#44197C"/>
<ellipse cx="14.2601" cy="348.943" rx="14.2601" ry="14.16" fill="#44197C"/>
<ellipse cx="481.788" cy="499.646" rx="8.14863" ry="8.09143" fill="#44197C"/>
<ellipse cx="338.168" cy="511.783" rx="8.14863" ry="8.09143" fill="#44197C"/>
<ellipse cx="567.348" cy="507.737" rx="8.14863" ry="8.09143" fill="#44197C"/>
<ellipse cx="514.382" cy="408.617" rx="13.2415" ry="13.1486" fill="#44197C"/>
<ellipse cx="111.025" cy="227.571" rx="24.4459" ry="24.2743" fill="#44197C"/>
<ellipse cx="712.496" cy="325.174" rx="4.5836" ry="4.55143" fill="#44197C"/>
<ellipse cx="862.227" cy="426.317" rx="4.5836" ry="4.55143" fill="#44197C"/>
<ellipse cx="1007.88" cy="325.174" rx="4.5836" ry="4.55143" fill="#44197C"/>
<ellipse cx="712.496" cy="181.551" rx="4.5836" ry="4.55143" fill="#44197C"/>
<ellipse cx="254.135" cy="456.66" rx="4.5836" ry="4.55143" fill="#44197C"/>
<ellipse cx="310.157" cy="172.449" rx="4.5836" ry="4.55143" fill="#44197C"/>
<ellipse cx="473.129" cy="300.9" rx="4.5836" ry="4.55143" fill="#44197C"/>
<ellipse cx="1007.88" cy="156.266" rx="4.5836" ry="4.55143" fill="#44197C"/>
<ellipse cx="1104.65" cy="475.877" rx="4.5836" ry="4.55143" fill="#44197C"/>
<ellipse cx="1125.02" cy="237.18" rx="4.5836" ry="4.55143" fill="#44197C"/>
<ellipse cx="1095.48" cy="12.6427" rx="4.5836" ry="4.55143" fill="#44197C"/>
<ellipse cx="607.582" cy="390.917" rx="4.5836" ry="4.55143" fill="#44197C"/>
<ellipse cx="49.401" cy="163.346" rx="4.5836" ry="4.55143" fill="#44197C"/>
<ellipse cx="58.5685" cy="524.426" rx="4.5836" ry="4.55143" fill="#44197C"/>
<ellipse cx="115.609" cy="348.437" rx="4.5836" ry="4.55143" fill="#44197C"/>
<ellipse cx="587.211" cy="70.2943" rx="4.5836" ry="4.55143" fill="#44197C"/>
<circle cx="631" cy="42" r="7" fill="#44197C"/>
<circle cx="758" cy="77" r="7" fill="#44197C"/>
<circle cx="465" cy="211" r="7" fill="#44197C"/>
<circle cx="612" cy="19" r="7" fill="#44197C"/>
<ellipse cx="493.584" cy="32.5514" rx="4.5836" ry="4.55143" fill="#44197C"/>
<ellipse cx="549.584" cy="23.5514" rx="4.5836" ry="4.55143" fill="#44197C"/>
<ellipse cx="452.584" cy="13.5514" rx="4.5836" ry="4.55143" fill="#44197C"/>
<ellipse cx="457.584" cy="51.5514" rx="4.5836" ry="4.55143" fill="#44197C"/>
<ellipse cx="502.584" cy="17.5514" rx="4.5836" ry="4.55143" fill="#44197C"/>
<ellipse cx="531.584" cy="65.5514" rx="4.5836" ry="4.55143" fill="#44197C"/>
<ellipse cx="1167.8" cy="380.803" rx="4.5836" ry="4.55143" fill="#44197C"/>
<ellipse cx="1158.63" cy="311.014" rx="4.5836" ry="4.55143" fill="#44197C"/>
<ellipse cx="1104.65" cy="342.369" rx="4.5836" ry="4.55143" fill="#44197C"/>
<ellipse cx="1149.47" cy="358.551" rx="4.5836" ry="4.55143" fill="#44197C"/>
<ellipse cx="1144.37" cy="333.266" rx="4.5836" ry="4.55143" fill="#44197C"/>
</g>
</svg>
